<?xml version="1.0" standalone="no"?><!DOCTYPE svg PUBLIC "-//W3C//DTD SVG 1.1//EN" "http://www.w3.org/Graphics/SVG/1.1/DTD/svg11.dtd"><svg xmlns="http://www.w3.org/2000/svg" viewBox="0 0 400 300" version="1.1"><clipPath id="box"><rect x="0" y="0" width="400" height="300" style="fill:none;stroke:none;" /></clipPath><g clip-path="url(#box)"><rect x="0.00" y="0.00" width="400.00" height="300.00" style="fill:#FFFFFF;stroke:none;" /><path d="M0.00 300.00 L400.00 300.00 M0.00 270.00 L400.00 270.00 M0.00 240.00 L400.00 240.00 M0.00 210.00 L400.00 210.00 M0.00 180.00 L400.00 180.00 M0.00 150.00 L400.00 150.00 M0.00 120.00 L400.00 120.00 M0.00 90.00 L400.00 90.00 M0.00 60.00 L400.00 60.00 M0.00 30.00 L400.00 30.00 M0.00 0.00 L400.00 0.00 M0.00 0.00 L0.00 300.00 M40.00 0.00 L40.00 300.00 M80.00 0.00 L80.00 300.00 M120.00 0.00 L120.00 300.00 M160.00 0.00 L160.00 300.00 M200.00 0.00 L200.00 300.00 M240.00 0.00 L240.00 300.00 M280.00 0.00 L280.00 300.00 M320.00 0.00 L320.00 300.00 M360.00 0.00 L360.00 300.00 M400.00 0.00 L400.00 300.00 " style="fill:none;stroke:#D0D0D0;stroke-width:1;" /><path d="M200.00 0.00 L200.00 300.00 " style="fill:none;stroke:#000000;stroke-width:1;" /><path d="M196.00 300.00 L204.00 300.00 M196.00 270.00 L204.00 270.00 M196.00 240.00 L204.00 240.00 M196.00 210.00 L204.00 210.00 M196.00 180.00 L204.00 180.00 M196.00 150.00 L204.00 150.00 M196.00 120.00 L204.00 120.00 M196.00 90.00 L204.00 90.00 M196.00 60.00 L204.00 60.00 M196.00 30.00 L204.00 30.00 M196.00 0.00 L204.00 0.00 " style="fill:none;stroke:#000000;stroke-width:1;" /><path d="M0.00 300.00 L400.00 300.00 " style="fill:none;stroke:#000000;stroke-width:1;" /><path d="M0.00 296.00 L0.00 304.00 M40.00 296.00 L40.00 304.00 M80.00 296.00 L80.00 304.00 M120.00 296.00 L120.00 304.00 M160.00 296.00 L160.00 304.00 M200.00 296.00 L200.00 304.00 M240.00 296.00 L240.00 304.00 M280.00 296.00 L280.00 304.00 M320.00 296.00 L320.00 304.00 M360.00 296.00 L360.00 304.00 M400.00 296.00 L400.00 304.00 " style="fill:none;stroke:#000000;stroke-width:1;" /><text x="205" y="272.5" text-anchor="start" style="font:10px Droid Sans,Trebuchet MS,Arial,Helvetica,sans-serif;stroke:none;fill:#000000">0.1</text><text x="205" y="242.5" text-anchor="start" style="font:10px Droid Sans,Trebuchet MS,Arial,Helvetica,sans-serif;stroke:none;fill:#000000">0.2</text><text x="205" y="212.5" text-anchor="start" style="font:10px Droid Sans,Trebuchet MS,Arial,Helvetica,sans-serif;stroke:none;fill:#000000">0.3</text><text x="205" y="182.5" text-anchor="start" style="font:10px Droid Sans,Trebuchet MS,Arial,Helvetica,sans-serif;stroke:none;fill:#000000">0.4</text><text x="205" y="152.5" text-anchor="start" style="font:10px Droid Sans,Trebuchet MS,Arial,Helvetica,sans-serif;stroke:none;fill:#000000">0.5</text><text x="205" y="122.5" text-anchor="start" style="font:10px Droid Sans,Trebuchet MS,Arial,Helvetica,sans-serif;stroke:none;fill:#000000">0.6</text><text x="205" y="92.50000000000001" text-anchor="start" style="font:10px Droid Sans,Trebuchet MS,Arial,Helvetica,sans-serif;stroke:none;fill:#000000">0.7</text><text x="205" y="62.50000000000002" text-anchor="start" style="font:10px Droid Sans,Trebuchet MS,Arial,Helvetica,sans-serif;stroke:none;fill:#000000">0.8</text><text x="205" y="32.50000000000003" text-anchor="start" style="font:10px Droid Sans,Trebuchet MS,Arial,Helvetica,sans-serif;stroke:none;fill:#000000">0.9</text><text x="40" y="289" text-anchor="middle" style="font:10px Droid Sans,Trebuchet MS,Arial,Helvetica,sans-serif;stroke:none;fill:#000000">-4</text><text x="80" y="289" text-anchor="middle" style="font:10px Droid Sans,Trebuchet MS,Arial,Helvetica,sans-serif;stroke:none;fill:#000000">-3</text><text x="120" y="289" text-anchor="middle" style="font:10px Droid Sans,Trebuchet MS,Arial,Helvetica,sans-serif;stroke:none;fill:#000000">-2</text><text x="160" y="289" text-anchor="middle" style="font:10px Droid Sans,Trebuchet MS,Arial,Helvetica,sans-serif;stroke:none;fill:#000000">-1</text><text x="200" y="289" text-anchor="middle" style="font:10px Droid Sans,Trebuchet MS,Arial,Helvetica,sans-serif;stroke:none;fill:#000000">0</text><text x="240" y="289" text-anchor="middle" style="font:10px Droid Sans,Trebuchet MS,Arial,Helvetica,sans-serif;stroke:none;fill:#000000">1</text><text x="280" y="289" text-anchor="middle" style="font:10px Droid Sans,Trebuchet MS,Arial,Helvetica,sans-serif;stroke:none;fill:#000000">2</text><text x="320" y="289" text-anchor="middle" style="font:10px Droid Sans,Trebuchet MS,Arial,Helvetica,sans-serif;stroke:none;fill:#000000">3</text><text x="360" y="289" text-anchor="middle" style="font:10px Droid Sans,Trebuchet MS,Arial,Helvetica,sans-serif;stroke:none;fill:#000000">4</text><path d="M-10.00 150.00 L-0.25 298.00 L0.75 297.95 L2.75 297.85 L4.75 297.74 L6.75 297.63 L8.75 297.51 L10.75 297.38 L12.75 297.25 L14.75 297.11 L16.75 296.96 L18.75 296.80 L20.75 296.64 L22.75 296.47 L24.75 296.29 L26.75 296.11 L28.75 295.91 L30.75 295.70 L32.75 295.49 L34.75 295.26 L36.75 295.02 L38.75 294.77 L40.75 294.50 L42.75 294.23 L44.75 293.94 L46.75 293.63 L48.75 293.31 L50.75 292.98 L52.75 292.63 L54.75 292.26 L56.75 291.87 L58.75 291.47 L60.75 291.04 L62.75 290.60 L64.75 290.13 L66.75 289.65 L68.75 289.13 L70.75 288.60 L72.75 288.04 L74.75 287.45 L76.75 286.83 L78.75 286.19 L80.75 285.52 L82.75 284.81 L84.75 284.07 L86.75 283.30 L88.75 282.50 L90.75 281.65 L92.75 280.77 L94.75 279.85 L96.75 278.89 L98.75 277.89 L100.75 276.85 L102.66 275.81 L104.49 274.77 L106.26 273.73 L107.96 272.69 L109.60 271.66 L111.18 270.62 L112.71 269.59 L114.20 268.56 L115.64 267.53 L117.04 266.50 L118.41 265.48 L119.73 264.45 L121.02 263.42 L122.29 262.40 L123.52 261.38 L124.72 260.35 L125.89 259.33 L127.04 258.31 L128.17 257.29 L129.27 256.27 L130.35 255.25 L131.42 254.23 L132.46 253.21 L133.48 252.19 L134.48 251.18 L135.47 250.16 L136.44 249.14 L137.39 248.13 L138.33 247.11 L139.26 246.10 L140.17 245.08 L141.07 244.07 L141.95 243.05 L142.83 242.04 L143.69 241.03 L144.54 240.01 L145.38 239.00 L146.20 237.99 L147.02 236.98 L147.83 235.96 L148.63 234.95 L149.42 233.94 L150.20 232.93 L150.97 231.92 L151.74 230.91 L152.49 229.90 L153.24 228.89 L153.98 227.88 L154.72 226.87 L155.44 225.86 L156.16 224.85 L156.88 223.84 L157.58 222.83 L158.28 221.82 L158.98 220.82 L159.67 219.81 L160.35 218.80 L161.03 217.79 L161.70 216.78 L162.37 215.78 L163.03 214.77 L163.69 213.76 L164.34 212.75 L164.99 211.75 L165.64 210.74 L166.28 209.73 L166.91 208.73 L167.54 207.72 L168.17 206.72 L168.80 205.71 L169.42 204.70 L170.03 203.70 L170.65 202.69 L171.26 201.69 L171.86 200.68 L172.47 199.68 L173.07 198.67 L173.67 197.67 L174.26 196.66 L174.85 195.66 L175.44 194.65 L176.03 193.65 L176.61 192.64 L177.19 191.64 L177.77 190.64 L178.35 189.63 L178.92 188.63 L179.50 187.63 L180.07 186.62 L180.63 185.62 L181.20 184.61 L181.76 183.61 L182.33 182.61 L182.89 181.61 L183.45 180.60 L184.00 179.60 L184.56 178.60 L185.11 177.59 L185.67 176.59 L186.22 175.59 L186.77 174.59 L187.32 173.58 L187.86 172.58 L188.41 171.58 L188.96 170.58 L189.50 169.58 L190.04 168.57 L190.58 167.57 L191.13 166.57 L191.67 165.57 L192.21 164.57 L192.74 163.57 L193.28 162.57 L193.82 161.56 L194.36 160.56 L194.89 159.56 L195.43 158.56 L195.96 157.56 L196.50 156.56 L197.03 155.56 L197.57 154.56 L198.10 153.56 L198.64 152.56 L199.17 151.56 L199.70 150.56 L200.24 149.56 L200.77 148.56 L201.30 147.56 L201.84 146.56 L202.37 145.56 L202.90 144.56 L203.44 143.56 L203.97 142.56 L204.51 141.56 L205.04 140.56 L205.58 139.56 L206.11 138.56 L206.65 137.56 L207.18 136.57 L207.72 135.57 L208.26 134.57 L208.80 133.57 L209.34 132.57 L209.88 131.57 L210.42 130.57 L210.96 129.58 L211.50 128.58 L212.05 127.58 L212.59 126.58 L213.14 125.58 L213.69 124.59 L214.23 123.59 L214.78 122.59 L215.34 121.59 L215.89 120.60 L216.44 119.60 L217.00 118.60 L217.55 117.60 L218.11 116.61 L218.67 115.61 L219.23 114.61 L219.80 113.62 L220.36 112.62 L220.93 111.62 L221.50 110.63 L222.07 109.63 L222.65 108.64 L223.22 107.64 L223.80 106.64 L224.38 105.65 L224.97 104.65 L225.55 103.66 L226.14 102.66 L226.73 101.67 L227.32 100.67 L227.92 99.68 L228.52 98.68 L229.12 97.69 L229.73 96.69 L230.34 95.70 L230.95 94.70 L231.56 93.71 L232.18 92.71 L232.81 91.72 L233.43 90.72 L234.06 89.73 L234.70 88.74 L235.33 87.74 L235.98 86.75 L236.62 85.76 L237.27 84.76 L237.93 83.77 L238.59 82.78 L239.25 81.79 L239.92 80.79 L240.60 79.80 L241.28 78.81 L241.97 77.82 L242.66 76.83 L243.35 75.83 L244.06 74.84 L244.77 73.85 L245.48 72.86 L246.20 71.87 L246.93 70.88 L247.67 69.89 L248.41 68.90 L249.16 67.91 L249.92 66.92 L250.68 65.93 L251.46 64.94 L252.24 63.95 L253.03 62.96 L253.83 61.97 L254.64 60.98 L255.45 60.00 L256.28 59.01 L257.12 58.02 L257.97 57.03 L258.83 56.05 L259.70 55.06 L260.59 54.08 L261.48 53.09 L262.39 52.10 L263.31 51.12 L264.25 50.13 L265.20 49.15 L266.17 48.17 L267.15 47.18 L268.14 46.20 L269.16 45.22 L270.19 44.23 L271.24 43.25 L272.31 42.27 L273.40 41.29 L274.52 40.31 L275.65 39.33 L276.81 38.35 L277.99 37.37 L279.20 36.39 L280.44 35.42 L281.70 34.44 L283.00 33.47 L284.33 32.49 L285.69 31.52 L287.09 30.54 L288.53 29.57 L290.01 28.60 L291.53 27.63 L293.10 26.66 L294.72 25.69 L296.40 24.73 L298.13 23.76 L299.92 22.80 L301.79 21.84 L303.72 20.88 L305.72 19.93 L307.72 19.02 L309.72 18.14 L311.72 17.31 L313.72 16.51 L315.72 15.75 L317.72 15.02 L319.72 14.32 L321.72 13.66 L323.72 13.02 L325.72 12.41 L327.72 11.83 L329.72 11.27 L331.72 10.74 L333.72 10.24 L335.72 9.75 L337.72 9.29 L339.72 8.85 L341.72 8.43 L343.72 8.03 L345.72 7.65 L347.72 7.29 L349.72 6.94 L351.72 6.61 L353.72 6.29 L355.72 5.99 L357.72 5.71 L359.72 5.43 L361.72 5.17 L363.72 4.92 L365.72 4.69 L367.72 4.46 L369.72 4.25 L371.72 4.04 L373.72 3.85 L375.72 3.66 L377.72 3.49 L379.72 3.32 L381.72 3.16 L383.72 3.01 L385.72 2.86 L387.72 2.72 L389.72 2.59 L391.72 2.47 L393.72 2.35 L395.72 2.23 L397.72 2.12 L399.72 2.02 " style="fill:none;stroke:#FF0000;stroke-width:1;" /></g></svg>