<?xml version="1.0" encoding="utf-8"?>
<!-- Generator: Adobe Illustrator 16.0.0, SVG Export Plug-In . SVG Version: 6.00 Build 0)  -->
<!DOCTYPE svg PUBLIC "-//W3C//DTD SVG 1.1//EN" "http://www.w3.org/Graphics/SVG/1.1/DTD/svg11.dtd">
<svg version="1.1" id="Layer_1" xmlns="http://www.w3.org/2000/svg" xmlns:xlink="http://www.w3.org/1999/xlink" x="0px" y="0px"
	 width="283.46px" height="283.46px" viewBox="0 0 283.46 283.46" enable-background="new 0 0 283.46 283.46" xml:space="preserve">
<path fill="#50314C" d="M141.73,0C63.451,0,0,63.451,0,141.73C0,220,63.451,283.46,141.73,283.46
	c78.279,0,141.73-63.461,141.73-141.73C283.46,63.451,220.009,0,141.73,0z"/>
<g>
	<polygon fill="#FFFFFF" points="57.737,193.24 103.702,135.45 57.737,107.352 	"/>
	<polygon fill="#FFFFFF" points="172.734,139.48 141.632,158.63 110.479,139.586 62.981,199.308 220.275,199.308 	"/>
	<polygon fill="#FFFFFF" points="141.624,149.382 225.722,97.59 225.722,84.152 57.737,84.152 57.737,98.113 	"/>
	<polygon fill="#FFFFFF" points="179.492,135.317 225.722,193.488 225.722,106.847 	"/>
</g>
</svg>
