<svg version="1.1" id="Layer_1" xmlns="http://www.w3.org/2000/svg" xmlns:xlink="http://www.w3.org/1999/xlink" x="0px" y="0px"
	 width="283.46px" height="283.46px" viewBox="0 0 283.46 283.46" enable-background="new 0 0 566.921 283.46"
	 xml:space="preserve">
<g>
	<path class="icon-body" d="M141.73,0C63.451,0,0,63.451,0,141.73C0,220,63.451,283.46,141.73,283.46
		c78.279,0,141.73-63.461,141.73-141.73C283.46,63.451,220.009,0,141.73,0z"/>
</g>
<path fill="#FFFFFF" d="M215.199,203.223v-54.362c0-29.125-15.545-42.679-36.281-42.679c-16.732,0-24.229,9.204-28.398,15.661
	v-13.438H119c0.417,8.902,0,94.817,0,94.817h31.517v-52.954c0-2.826,0.204-5.66,1.037-7.681c2.275-5.66,7.458-11.523,16.166-11.523
	c11.408,0,15.971,8.689,15.971,21.438v50.729L215.199,203.223L215.199,203.223z M85.791,95.464c10.984,0,17.832-7.29,17.832-16.387
	c-0.204-9.301-6.848-16.379-17.628-16.379c-10.78,0-17.822,7.078-17.822,16.379c0,9.106,6.838,16.387,17.424,16.387H85.791z
	 M101.549,203.223v-94.817H70.041v94.817H101.549z"/>
</svg>
