<?xml version="1.0" encoding="utf-8"?>
<!-- Generator: Adobe Illustrator 16.0.0, SVG Export Plug-In . SVG Version: 6.00 Build 0)  -->
<!DOCTYPE svg PUBLIC "-//W3C//DTD SVG 1.1//EN" "http://www.w3.org/Graphics/SVG/1.1/DTD/svg11.dtd">
<svg version="1.1" id="Layer_1" xmlns="http://www.w3.org/2000/svg" xmlns:xlink="http://www.w3.org/1999/xlink" x="0px" y="0px"
	 width="566.921px" height="283.46px" viewBox="0 0 566.921 283.46" enable-background="new 0 0 566.921 283.46"
	 xml:space="preserve">
<g>
	<path fill="#50314C" d="M141.73,0C63.451,0,0,63.451,0,141.73C0,220,63.451,283.46,141.73,283.46S283.46,220,283.46,141.73
		C283.46,63.451,220.009,0,141.73,0z"/>
</g>
<path fill="#FFFFFF" d="M161.449,78.713c-14.085,5.129-22.987,18.345-21.978,32.811l0.336,5.581l-5.634-0.682
	c-20.506-2.622-38.426-11.507-53.645-26.433l-7.441-7.405l-1.904,5.465c-4.057,12.189-1.462,25.068,6.989,33.732
	c4.509,4.783,3.49,5.465-4.278,2.622c-2.702-0.912-5.076-1.594-5.297-1.249c-0.788,0.797,1.914,11.162,4.057,15.271
	c2.932,5.705,8.902,11.277,15.44,14.589l5.527,2.622l-6.546,0.098c-6.307,0-6.537,0.114-5.855,2.516
	c2.25,7.405,11.152,15.271,21.073,18.69l6.989,2.392l-6.085,3.649c-9.018,5.254-19.612,8.212-30.207,8.424
	c-5.076,0.115-9.248,0.567-9.248,0.913c0,1.134,13.756,7.512,21.747,10.027c24.005,7.405,52.52,4.208,73.93-8.433
	c15.219-9,30.428-26.894,37.532-44.221c3.835-9.221,7.662-26.086,7.662-34.174c0-5.244,0.337-5.926,6.644-12.189
	c3.721-3.649,7.211-7.636,7.893-8.77c1.134-2.17,1.01-2.17-4.73-0.23c-9.575,3.419-10.931,2.968-6.191-2.161
	c3.49-3.65,7.662-10.258,7.662-12.189c0-0.336-1.691,0.23-3.605,1.249c-2.028,1.143-6.537,2.853-9.921,3.871l-6.085,1.94
	l-5.52-3.774c-3.047-2.046-7.316-4.332-9.575-5.014C175.426,76.658,166.639,76.889,161.449,78.713z"/>
<g>
	<path fill="#9D7E50" d="M425.191,0.002c-78.279,0-141.73,63.451-141.73,141.73c0,78.271,63.451,141.73,141.73,141.73
		s141.73-63.46,141.73-141.73C566.921,63.453,503.47,0.002,425.191,0.002z"/>
</g>
<path fill="#FFFFFF" d="M444.91,78.715c-14.085,5.129-22.987,18.345-21.978,32.811l0.337,5.581l-5.635-0.682
	c-20.506-2.622-38.426-11.507-53.645-26.433l-7.44-7.405l-1.904,5.465c-4.058,12.189-1.462,25.068,6.989,33.732
	c4.508,4.783,3.49,5.465-4.279,2.622c-2.701-0.912-5.075-1.594-5.297-1.249c-0.788,0.797,1.914,11.162,4.057,15.271
	c2.933,5.705,8.902,11.277,15.44,14.59l5.527,2.622l-6.546,0.098c-6.307,0-6.537,0.114-5.855,2.516
	c2.25,7.405,11.152,15.271,21.073,18.69l6.989,2.392l-6.086,3.649c-9.018,5.254-19.611,8.212-30.206,8.424
	c-5.075,0.115-9.247,0.567-9.247,0.913c0,1.134,13.756,7.512,21.746,10.027c24.006,7.405,52.52,4.208,73.93-8.433
	c15.219-9,30.428-26.894,37.532-44.221c3.835-9.221,7.662-26.086,7.662-34.174c0-5.244,0.337-5.926,6.644-12.189
	c3.721-3.649,7.211-7.636,7.893-8.77c1.134-2.17,1.01-2.17-4.73-0.23c-9.575,3.419-10.931,2.968-6.191-2.161
	c3.49-3.65,7.662-10.258,7.662-12.189c0-0.336-1.691,0.23-3.605,1.249c-2.028,1.143-6.537,2.853-9.921,3.871l-6.085,1.94
	l-5.52-3.774c-3.047-2.046-7.316-4.332-9.575-5.014C458.887,76.66,450.1,76.891,444.91,78.715z"/>
</svg>
