<?xml version="1.0" encoding="utf-8"?>
<!-- Generator: Adobe Illustrator 16.0.0, SVG Export Plug-In . SVG Version: 6.00 Build 0)  -->
<!DOCTYPE svg PUBLIC "-//W3C//DTD SVG 1.1//EN" "http://www.w3.org/Graphics/SVG/1.1/DTD/svg11.dtd">
<svg version="1.1" id="Layer_1" xmlns="http://www.w3.org/2000/svg" xmlns:xlink="http://www.w3.org/1999/xlink" x="0px" y="0px"
	 width="566.921px" height="283.46px" viewBox="0 0 566.921 283.46" enable-background="new 0 0 566.921 283.46"
	 xml:space="preserve">
<path fill="#50314C" d="M141.73,0C63.451,0,0,63.451,0,141.73C0,220,63.451,283.46,141.73,283.46
	c78.279,0,141.73-63.461,141.73-141.73C283.46,63.451,220.009,0,141.73,0z"/>
<g>
	<polygon fill="#FFFFFF" points="57.737,193.24 103.702,135.45 57.737,107.352 	"/>
	<polygon fill="#FFFFFF" points="172.734,139.48 141.632,158.63 110.479,139.586 62.981,199.308 220.275,199.308 	"/>
	<polygon fill="#FFFFFF" points="141.624,149.382 225.722,97.59 225.722,84.152 57.737,84.152 57.737,98.113 	"/>
	<polygon fill="#FFFFFF" points="179.492,135.317 225.722,193.488 225.722,106.847 	"/>
</g>
<path fill="#9D7E50" d="M425.191,0c-78.279,0-141.73,63.451-141.73,141.73c0,78.27,63.451,141.73,141.73,141.73
	S566.921,220,566.921,141.73C566.921,63.451,503.47,0,425.191,0z"/>
<g>
	<polygon fill="#FFFFFF" points="341.198,193.24 387.164,135.45 341.198,107.352 	"/>
	<polygon fill="#FFFFFF" points="456.195,139.48 425.093,158.63 393.94,139.586 346.442,199.308 503.736,199.308 	"/>
	<polygon fill="#FFFFFF" points="425.085,149.382 509.183,97.59 509.183,84.152 341.198,84.152 341.198,98.113 	"/>
	<polygon fill="#FFFFFF" points="462.953,135.317 509.183,193.488 509.183,106.847 	"/>
</g>
</svg>
