<?xml version="1.0" encoding="utf-8"?>
<!-- Generator: Adobe Illustrator 16.0.0, SVG Export Plug-In . SVG Version: 6.00 Build 0)  -->
<!DOCTYPE svg PUBLIC "-//W3C//DTD SVG 1.1//EN" "http://www.w3.org/Graphics/SVG/1.1/DTD/svg11.dtd">
<svg version="1.1" id="Layer_1" xmlns="http://www.w3.org/2000/svg" xmlns:xlink="http://www.w3.org/1999/xlink" x="0px" y="0px"
	 width="566.921px" height="283.46px" viewBox="0 0 566.921 283.46" enable-background="new 0 0 566.921 283.46"
	 xml:space="preserve">
<g>
	<path fill="#50314C" d="M141.586,0C63.387,0,0,63.386,0,141.587c0,78.191,63.387,141.586,141.586,141.586
		c78.2,0,141.587-63.396,141.587-141.586C283.173,63.386,219.787,0,141.586,0z"/>
</g>
<path fill="#FFFFFF" d="M192.071,200.408h26.035c0-74.634-60.714-135.393-135.339-135.393v25.963
	C143.029,90.978,192.071,140.074,192.071,200.408z M100.792,200.451c9.982,0,18.043-8.016,18.043-17.953
	c0-9.886-8.061-17.993-18.043-17.993c-9.938,0-18.017,8.107-18.017,17.993C82.767,192.435,90.846,200.451,100.792,200.451z
	 M146.064,200.416L146.064,200.416h26.061c0-49.289-40.096-89.385-89.368-89.385v25.954c16.902,0,32.786,6.601,44.75,18.584
	C139.472,167.505,146.064,183.461,146.064,200.416z"/>
<g>
	<path fill="#9D7E50" d="M424.76,0.144c-78.2,0-141.586,63.386-141.586,141.587c0,78.19,63.386,141.586,141.586,141.586
		s141.587-63.396,141.587-141.586C566.347,63.53,502.96,0.144,424.76,0.144z"/>
</g>
<path fill="#FFFFFF" d="M475.245,200.551h26.034c0-74.634-60.713-135.393-135.338-135.393v25.963
	C426.203,91.122,475.245,140.217,475.245,200.551z M383.966,200.594c9.981,0,18.043-8.016,18.043-17.953
	c0-9.886-8.062-17.993-18.043-17.993c-9.938,0-18.018,8.107-18.018,17.993C365.941,192.579,374.02,200.594,383.966,200.594z
	 M429.238,200.559L429.238,200.559h26.062c0-49.289-40.097-89.385-89.368-89.385v25.954c16.902,0,32.786,6.601,44.75,18.584
	C422.646,167.649,429.238,183.605,429.238,200.559z"/>
</svg>
