<svg xmlns="http://www.w3.org/2000/svg" viewBox="0 0 283.46 283.46" width="283.46" height="283.46" version="1.1">
<path class="icon-body" d="m141.73,0c-78.275,0 -141.73,63.455 -141.73,141.73c0,78.275 63.455,141.73 141.73,141.73c78.275,0 141.73,-63.455 141.73,-141.73c0,-78.275 -63.455,-141.73 -141.73,-141.73z"/>
<g transform="matrix(1.107422241811154,0,0,1.107422241811154,10.99953146307012,219.93852396886876)" fill="#FFF">
<path d="m76.36744,-12.40403l-15.4,0l0,-107.1l15.4,0l0,48.4l0,58.7z"/>
<path d="m98.96744,-119.50403l41.6,0c39.6,0 57,28.3 57,53.6c0,27.5 -21.5,53.6 -56.8,53.6l-41.8,0l0,-107.2zm15.4,93.3l24.5,0c34.9,0 42.9,-26.5 42.9,-39.7c0,-21.5 -13.7,-39.7 -43.7,-39.7l-23.7,0l0,79.4z"/>
<path d="m78.76744,-141.80403c0,5.5 -4.5,10.1 -10.1,10.1c-5.6,0 -10.1,-4.6 -10.1,-10.1c0,-5.6 4.5,-10.1 10.1,-10.1c5.6,0 10.1,4.6 10.1,10.1z"/>
</g>
</svg>
