<?xml version="1.0" encoding="utf-8"?>
<svg viewBox="100 71.886 566.92 283.46" width="566.92" height="283.46" xmlns="http://www.w3.org/2000/svg">
  <g transform="matrix(1, 0, 0, 1, 100, 71.88604)">
    <path fill="#50314C" d="M141.73,0C63.451,0,0,63.451,0,141.73C0,220,63.451,283.46,141.73,283.46S283.46,220,283.46,141.73 C283.46,63.451,220.009,0,141.73,0z"/>
  </g>
  <g transform="matrix(1, 0, 0, 1, 99.998993, 71.884071)">
    <path fill="#9D7E50" d="M425.191,0.002c-78.279,0-141.73,63.451-141.73,141.73c0,78.271,63.451,141.73,141.73,141.73 s141.73-63.46,141.73-141.73C566.921,63.453,503.47,0.002,425.191,0.002z"/>
  </g>
  <path fill="#fff" d="M 321.979 235.324 C 319.488 248.139 299.668 262.165 276.905 264.883 C 265.034 266.3 253.347 267.602 240.884 267.03 C 220.503 266.096 204.421 262.165 204.421 262.165 C 204.421 264.149 204.543 266.038 204.788 267.806 C 207.437 287.92 224.733 289.125 241.116 289.686 C 257.651 290.252 272.374 285.61 272.374 285.61 L 273.053 300.558 C 273.053 300.558 261.487 306.768 240.884 307.911 C 229.523 308.535 215.416 307.625 198.986 303.276 C 163.35 293.844 157.222 255.858 156.284 217.316 C 155.998 205.873 156.174 195.082 156.174 186.058 C 156.174 146.646 181.997 135.093 181.997 135.093 C 195.017 129.114 217.359 126.599 240.586 126.41 L 241.156 126.41 C 264.383 126.599 286.74 129.114 299.759 135.093 C 299.759 135.093 325.581 146.646 325.581 186.058 C 325.581 186.058 325.905 215.135 321.979 235.324" style=""/>
  <path fill="#50314C" d="M 295.123 189.115 L 295.123 236.835 L 276.216 236.835 L 276.216 190.517 C 276.216 180.754 272.109 175.798 263.891 175.798 C 254.805 175.798 250.251 181.677 250.251 193.301 L 250.251 218.654 L 231.457 218.654 L 231.457 193.301 C 231.457 181.677 226.903 175.798 217.817 175.798 C 209.6 175.798 205.491 180.754 205.491 190.517 L 205.491 236.835 L 186.586 236.835 L 186.586 189.115 C 186.586 179.362 189.069 171.612 194.057 165.878 C 199.201 160.144 205.937 157.204 214.299 157.204 C 223.974 157.204 231.3 160.923 236.145 168.361 L 240.854 176.255 L 245.564 168.361 C 250.408 160.923 257.733 157.204 267.41 157.204 C 275.77 157.204 282.507 160.144 287.652 165.878 C 292.638 171.612 295.123 179.362 295.123 189.115" style=""/>
  <path fill="#fff" d="M 605.439 235.324 C 602.948 248.139 583.128 262.165 560.365 264.883 C 548.494 266.3 536.807 267.602 524.344 267.03 C 503.963 266.096 487.881 262.165 487.881 262.165 C 487.881 264.149 488.003 266.038 488.248 267.806 C 490.897 287.92 508.193 289.125 524.576 289.686 C 541.111 290.252 555.834 285.61 555.834 285.61 L 556.513 300.558 C 556.513 300.558 544.947 306.768 524.344 307.911 C 512.983 308.535 498.876 307.625 482.446 303.276 C 446.81 293.844 440.682 255.858 439.744 217.316 C 439.458 205.873 439.634 195.082 439.634 186.058 C 439.634 146.646 465.457 135.093 465.457 135.093 C 478.477 129.114 500.819 126.599 524.046 126.41 L 524.616 126.41 C 547.843 126.599 570.2 129.114 583.219 135.093 C 583.219 135.093 609.041 146.646 609.041 186.058 C 609.041 186.058 609.365 215.135 605.439 235.324" style=""/>
  <path fill="#9D7E50" d="M 578.583 189.115 L 578.583 236.835 L 559.676 236.835 L 559.676 190.517 C 559.676 180.754 555.569 175.798 547.351 175.798 C 538.265 175.798 533.711 181.677 533.711 193.301 L 533.711 218.654 L 514.917 218.654 L 514.917 193.301 C 514.917 181.677 510.363 175.798 501.277 175.798 C 493.06 175.798 488.951 180.754 488.951 190.517 L 488.951 236.835 L 470.046 236.835 L 470.046 189.115 C 470.046 179.362 472.529 171.612 477.517 165.878 C 482.661 160.144 489.397 157.204 497.759 157.204 C 507.434 157.204 514.76 160.923 519.605 168.361 L 524.314 176.255 L 529.024 168.361 C 533.868 160.923 541.193 157.204 550.87 157.204 C 559.23 157.204 565.967 160.144 571.112 165.878 C 576.098 171.612 578.583 179.362 578.583 189.115" style=""/>
</svg>