<?xml version="1.0" encoding="utf-8"?>
<!-- Generator: Adobe Illustrator 16.0.0, SVG Export Plug-In . SVG Version: 6.00 Build 0)  -->
<!DOCTYPE svg PUBLIC "-//W3C//DTD SVG 1.1//EN" "http://www.w3.org/Graphics/SVG/1.1/DTD/svg11.dtd">
<svg version="1.1" id="Layer_1" xmlns="http://www.w3.org/2000/svg" xmlns:xlink="http://www.w3.org/1999/xlink" x="0px" y="0px"
	 width="566.921px" height="283.46px" viewBox="0 0 566.921 283.46" enable-background="new 0 0 566.921 283.46"
	 xml:space="preserve">
<g>
	<path fill="#50314C" d="M141.73,0C63.455,0,0,63.455,0,141.73c0,78.275,63.455,141.73,141.73,141.73
		c78.275,0,141.73-63.455,141.73-141.73C283.46,63.455,220.005,0,141.73,0z"/>
</g>
<g id="Outline_Filled">
	<path id="Cat_3_" fill="#FFFFFF" d="M170.925,222.189H149.49h-21.455c0,0,0.062-12.73,0-21.455
		c-29.36,6.324-37.554-16.091-37.554-16.091c-5.359-10.731-10.732-16.091-10.732-16.091c-10.731-6.369,0-5.359,0-5.359
		c10.732,0,16.091,10.732,16.091,10.732c9.417,15.984,26.167,13.41,32.182,10.729c0-5.357,2.348-13.473,5.359-16.09
		c-23.43-2.636-42.931-16.091-42.931-42.914c0-26.822,5.386-32.181,10.75-37.554c-1.081-2.644-5.576-12.424,0.164-26.823
		c0,0,10.542,0,21.273,16.091c5.315-5.314,21.454-5.359,26.821-5.359c5.352,0,21.5,0.044,26.813,5.359
		c10.729-16.091,21.299-16.091,21.299-16.091c5.74,14.399,1.249,24.179,0.164,26.823c5.359,5.359,10.729,10.731,10.729,37.554
		c0,26.823-19.475,40.27-42.911,42.914c3.021,2.617,5.358,11.85,5.358,16.09L170.925,222.189L170.925,222.189z"/>
</g>
<g>
	<path fill="#9D7E50" d="M425.191,0c-78.275,0-141.73,63.455-141.73,141.73c0,78.275,63.455,141.73,141.73,141.73
		s141.73-63.455,141.73-141.73C566.921,63.455,503.466,0,425.191,0z"/>
</g>
<g id="Outline_Filled_1_">
	<path id="Cat_1_" fill="#FFFFFF" d="M454.386,222.189h-21.436h-21.455c0,0,0.063-12.73,0-21.455
		c-29.359,6.324-37.554-16.091-37.554-16.091c-5.358-10.731-10.731-16.091-10.731-16.091c-10.731-6.369,0-5.359,0-5.359
		c10.731,0,16.09,10.732,16.09,10.732c9.418,15.984,26.168,13.41,32.183,10.729c0-5.357,2.349-13.473,5.358-16.09
		c-23.43-2.636-42.93-16.091-42.93-42.914c0-26.822,5.385-32.181,10.75-37.554c-1.082-2.644-5.576-12.424,0.163-26.823
		c0,0,10.542,0,21.273,16.091c5.315-5.314,21.454-5.359,26.821-5.359c5.352,0,21.5,0.044,26.813,5.359
		c10.729-16.091,21.299-16.091,21.299-16.091c5.74,14.399,1.249,24.179,0.164,26.823c5.359,5.359,10.729,10.731,10.729,37.554
		c0,26.823-19.475,40.27-42.911,42.914c3.021,2.617,5.358,11.85,5.358,16.09L454.386,222.189L454.386,222.189z"/>
</g>
</svg>
